<?xml version="1.0" encoding="UTF-8"?>
<svg width="512" height="512" viewBox="0 0 512 512" fill="none" xmlns="http://www.w3.org/2000/svg">
  <rect width="512" height="512" rx="256" fill="#0061F2"/>
  <path d="M256 96C167.6 96 96 167.6 96 256s71.6 160 160 160 160-71.6 160-160S344.4 96 256 96zm72 252c0 6.6-5.4 12-12 12h-120c-6.6 0-12-5.4-12-12V164c0-6.6 5.4-12 12-12h120c6.6 0 12 5.4 12 12v184z" fill="white"/>
  <path d="M268 176h-24c-6.6 0-12 5.4-12 12v108c0 6.6 5.4 12 12 12h24c6.6 0 12-5.4 12-12V188c0-6.6-5.4-12-12-12z" fill="#00BA88"/>
</svg> 